# xmcd
#
# Track frame offsets:
#	150
#	27179
#	61199
#	95039
#	115992
#	142936
#	178831
#	203400
#	225238
#	250789
#	267131
#	304677
#	331454
#
# Disc length: 4710 seconds
#
# Revision: 0
# Processed by: cddbd v1.5.2PL0 Copyright (c) Steve Scherf et al.
# Submitted via: FairStars CD Ripper 1.01
#
DISCID=a712640d
DTITLE=John Lee Hooker - The Cream
DYEAR=1978
DGENRE=Blues
TTITLE0=Hey, Hey
TTITLE1=Rock Steady
TTITLE2=Tupelo
TTITLE3=You Know it Ain't Right
TTITLE4=She's Gone
TTITLE5=T.B. Sheets
TTITLE6=Sugar Mama
TTITLE7=One Room Country Shack
TTITLE8=Drug Store Woman
TTITLE9=I Want You To Roll Me
TTITLE10=Bar Room Drinking
TTITLE11=Little Girl
TTITLE12=Louise
EXTD=
EXTT0=
EXTT1=
EXTT2=
EXTT3=
EXTT4=
EXTT5=
EXTT6=
EXTT7=
EXTT8=
EXTT9=
EXTT10=
EXTT11=
EXTT12=
PLAYORDER=
